<?xml version="1.0" encoding="utf-8"?>
<!-- Generator: Adobe Illustrator 16.0.0, SVG Export Plug-In . SVG Version: 6.00 Build 0)  -->
<!DOCTYPE svg PUBLIC "-//W3C//DTD SVG 1.1//EN" "http://www.w3.org/Graphics/SVG/1.1/DTD/svg11.dtd">
<svg version="1.1" id="Layer_1" xmlns="http://www.w3.org/2000/svg" xmlns:xlink="http://www.w3.org/1999/xlink" x="0px" y="0px"
	 width="500px" height="500px" viewBox="0 0 500 500" enable-background="new 0 0 500 500" xml:space="preserve">
<g>
	<path d="M357.168,375.292l0.043,252.759l-6.413,0.127c-5.183,0.085-6.709,0.339-7.729,1.36c-2.254,2.251-1.659,7.009,1.06,8.282
		c0.467,0.213,8.749,0.424,18.435,0.427c15.374,0.084,17.752-0.087,18.9-1.234c2.124-2.124,2.123-5.011,0.084-7.051
		c-1.528-1.527-2.294-1.698-7.899-1.782l-6.243-0.127V374.314l-0.001-32.854c-3.438,1.001-6.851,2.051-10.236,3.144L357.168,375.292
		z"/>
	<path d="M147.666,455.636c-0.478,13.543,6.698,14.51,6.698,14.51l2.392,165.409c3.35,5.804,6.219,0.483,6.219,0.483
		c6.698,4.837,11.961-2.902,11.961-2.902l-2.704-277.517c-8.743-3.714-17.874-7.146-27.267-10.247L147.666,455.636z"/>
	<path d="M485.61,293.085c-5.755-14.455-10.49-26.989-10.49-28.01c0-1.28-46.686-104.245-66.771-147.35
		c-2.3-4.86-7.165-5.885-24.939-4.86c-61.78,3.2-101.305,14.965-128.035,37.99c-2.305,1.92-4.734,3.58-5.37,3.58
		c-0.77,0-4.86-2.94-9.21-6.395c-24.175-19.57-61.14-30.825-112.305-34.535c-22.51-1.535-29.29-1.535-32.745,0.26
		c-1.535,0.64-3.455,2.815-4.35,4.73c-0.895,1.79-14.71,33-30.7,69.325c-16.115,36.2-30.95,69.331-32.995,73.55
		c-2.05,4.09-8.19,18.93-13.69,32.745c-9.21,23.15-9.85,25.455-8.44,28.904c2.43,5.756,6.14,6.91,17.78,5.246
		c11.895-1.791,40.29-0.766,59.095,2.174c21.165,3.167,42.433,8.3,62.52,14.933l-0.331-13.506c-0.631,0.274-1.347,0.44-2.216,0.535
		c-1.788,0.195-3.92,0.27-5.707,0.004c-8.181-1.64-5.233-19.46-5.233-19.526c2.223-6.196,10.113-5.52,12.57-4.951l-0.208-8.511
		c0,0-3.828-15.96-19.138-22.731c0,0-7.654-7.255,4.785-13.059l-33.011-89.476c0,0,26.792-11.607,48.321,0l13.396,90.927
		c0,0-6.698,2.418-6.698,9.188l14.831,39.66c0,0,7.176-2.902,4.307,4.837c0,0-3.35,11.124,1.435,19.829l0.166,17.026
		c13.349,5.671,25.792,11.996,36.844,18.82c18.035,11.131,24.56,13.176,40.93,13.176s22.896-2.045,40.931-13.176
		c18.947-11.729,41.83-21.954,66.231-29.836l-0.002-42.962l-3.991-6.2l-3.949-6.246l-0.043-13.208l-0.086-13.167l-7.22,0.681
		c-8.326,0.765-20.218,2.974-25.866,4.799l-3.869,1.319l0.126-27.906c0.044-28.075,0.47-32.916,3.314-39.584
		c5.649-13.463,19.665-25.442,36.527-31.175c9.558-3.272,14.952-2.636,26.759,3.311c8.663,4.331,13.421,7.644,18.985,13.208
		c8.323,8.323,12.572,16.565,13.72,26.546c0.213,2.59,0.468,16.096,0.468,30.028l-0.042,25.355l-2.845-0.807
		c-7.942-2.25-24.253-4.968-31.006-5.181l-2.632-0.085l-0.085,12.741l-0.044,12.698l-3.991,5.438l-3.993,5.438l0.001,41.814
		c3.398-0.989,6.814-1.941,10.252-2.835c37.095-9.721,76.489-13.686,100.279-10.234c10.23,1.534,14.195,0.254,16.5-5.375
		C495.845,319.561,495.205,317.13,485.61,293.085z"/>
	<path d="M143.062,320.589c-0.192-1.277,0.368-2.952-0.145-4.154c-1.285-3.007-4.932-1.734-7.332-1.841
		c-0.573-1.611,0.774-1.708,1.979-2.123c1.146-0.395,2.431-0.784,3.617-0.847c1.229-0.063,2.137,0.636,2.993,1.442l-0.062-2.533
		c-3.677-1.224-7.378-1.383-9.589,1.576c-2.058,2.754-1.923,7.096-1.616,10.362c0.76,10.313,9.324,7.923,10.654,7.525
		c0.32-0.096,0.673-0.308,1.014-0.58l-0.16-6.544C143.717,322.426,143.224,321.672,143.062,320.589z"/>
</g>
</svg>
