<?xml version="1.0" encoding="utf-8"?>
<!-- Generator: Adobe Illustrator 16.0.0, SVG Export Plug-In . SVG Version: 6.00 Build 0)  -->
<!DOCTYPE svg PUBLIC "-//W3C//DTD SVG 1.1//EN" "http://www.w3.org/Graphics/SVG/1.1/DTD/svg11.dtd">
<svg version="1.1" id="Layer_1" xmlns="http://www.w3.org/2000/svg" xmlns:xlink="http://www.w3.org/1999/xlink" x="0px" y="0px"
	 width="500px" height="500px" viewBox="0 0 500 500" enable-background="new 0 0 500 500" xml:space="preserve">
<g>
	<path d="M484.981,283.517c-5.755-14.455-10.49-26.989-10.49-28.01c0-1.28-46.686-104.245-66.771-147.35
		c-2.3-4.86-7.165-5.885-24.939-4.86c-61.78,3.2-101.305,14.965-128.035,37.99c-2.305,1.92-4.734,3.58-5.37,3.58
		c-0.77,0-4.86-2.94-9.21-6.395c-24.175-19.57-61.14-30.825-112.305-34.535c-22.51-1.535-29.29-1.535-32.745,0.26
		c-1.535,0.64-3.455,2.815-4.35,4.73c-0.895,1.79-14.71,33-30.7,69.325c-16.115,36.2-30.95,69.331-32.995,73.55
		c-2.05,4.09-8.19,18.93-13.69,32.745c-9.21,23.15-9.85,25.455-8.44,28.904c2.43,5.756,6.14,6.91,17.78,5.246
		c11.895-1.791,40.29-0.766,59.095,2.174c46.175,6.91,92.86,23.15,126.63,44c2.231,1.377,4.286,2.614,6.205,3.727l29.125-47.422
		l-34.695-64.072c-0.438,0.531-1,1.006-1.731,1.484c-1.503,0.986-3.369,2.021-5.081,2.598c-8.033,2.258-13.506-14.956-13.536-15.015
		c-0.837-6.53,6.499-9.514,8.945-10.123l-4.053-7.487c0,0-10.663-12.477-27.378-11.55c0,0-10.115-2.983-1.673-13.807l-70.07-64.697
		c0,0,18.589-22.516,43.042-21.961l53.258,74.905c0,0-4.867,5.198-1.791,11.229l31.236,28.586c0,0,5.072-5.846,6.034,2.352
		c0,0,2.072,11.432,10.29,17.011l23.23,44.452l35.381-57.594l-0.155-7.372l-0.095-7.389l6.878-11.276l6.819-11.264l-6.509-3.199
		c-7.493-3.707-18.782-8.05-24.552-9.451l-3.987-0.901l14.718-23.711c14.733-23.898,17.63-27.8,23.544-31.992
		c11.86-8.514,30.075-11.383,47.441-7.441c9.857,2.216,14.121,5.582,21.066,16.829c5.115,8.226,7.434,13.539,9.264,21.192
		c2.733,11.449,2.039,20.696-2.207,29.801c-1.175,2.318-8.027,13.958-15.32,25.83l-13.311,21.582l-1.999-2.176
		c-5.591-6.075-18.066-16.929-23.707-20.646l-2.198-1.45l-6.741,10.812l-6.687,10.796l-6.245,2.544l-6.25,2.542l-39.086,63.622
		l-0.541,0.881l29.52,56.488c23.407-13.756,52.175-25.276,82.183-33.079c37.095-9.721,76.489-13.686,100.279-10.234
		c10.23,1.534,14.195,0.254,16.5-5.375C495.216,309.992,494.576,307.562,484.981,283.517z"/>
	<path d="M268.034,365.974l-18.633-34.409l-25.68,41.799c8.351,3.794,14.865,4.684,25.655,4.684c10.236,0,16.624-0.8,24.383-4.121
		C271.919,372.455,269.918,370.011,268.034,365.974z"/>
	<path d="M202.555,247.773c-0.751-1.051-1.014-2.797-2.017-3.634c-2.511-2.095-5.181,0.697-7.368,1.692
		c-1.243-1.174-0.087-1.873,0.798-2.79c0.841-0.873,1.809-1.804,2.836-2.398c1.066-0.615,2.192-0.405,3.322-0.075l-1.207-2.229
		c-3.832,0.581-7.201,2.122-7.825,5.761c-0.581,3.389,1.512,7.195,3.27,9.966c5.365,8.841,11.906,2.819,12.91,1.86
		c0.242-0.23,0.459-0.579,0.64-0.978l-3.117-5.756C203.974,249.112,203.192,248.664,202.555,247.773z"/>
</g>
</svg>
