<?xml version="1.0" encoding="utf-8"?>
<!-- Generator: Adobe Illustrator 16.0.0, SVG Export Plug-In . SVG Version: 6.00 Build 0)  -->
<!DOCTYPE svg PUBLIC "-//W3C//DTD SVG 1.1//EN" "http://www.w3.org/Graphics/SVG/1.1/DTD/svg11.dtd">
<svg version="1.1" id="Layer_1" xmlns="http://www.w3.org/2000/svg" xmlns:xlink="http://www.w3.org/1999/xlink" x="0px" y="0px"
	 width="500px" height="500px" viewBox="0 0 500 500" enable-background="new 0 0 500 500" xml:space="preserve">
<circle fill="#78B5FF" cx="250" cy="250" r="217.75"/>
<polygon fill="#0C3EA3" points="343.375,169.964 467.201,292.868 404.73,408.313 290.162,472.581 163.376,347.73 337.535,350.277 
	"/>
<g>
	<rect x="196.632" y="316.707" fill="#0D47FF" width="120.064" height="13.35"/>
	<path fill="#0D47FF" d="M330.024,169.964v173.422H189.968c-11.042,0-20.015-8.951-20.015-20.016
		c0-11.041,8.951-20.014,20.015-20.014h126.729V143.286H183.303c-14.678,0-26.678,12-26.678,26.679v160.071
		c0,14.68,12,26.68,26.678,26.68h160.072v-186.75H330.024z M196.925,203.124c1.622,0,3.118,0.535,4.339,1.431l23.716-4.804
		l12.282-21.878c-1.101-1.302-1.77-2.985-1.77-4.826c0-4.112,3.317-7.457,7.394-7.457c4.079,0,7.397,3.345,7.396,7.457
		c0,1.841-0.669,3.525-1.771,4.828l12.283,21.876l23.557,4.771c1.336-1.334,3.173-2.161,5.198-2.161
		c4.078,0,7.396,3.345,7.396,7.456c0,4.112-3.318,7.457-7.396,7.457c-0.751,0-1.476-0.115-2.159-0.326l-15.537,16.965l2.91,25.274
		c3.399,0.67,5.974,3.693,5.974,7.314c0,4.111-3.317,7.457-7.396,7.457c-4.077,0-7.395-3.346-7.395-7.457
		c0-0.287,0.02-0.568,0.051-0.848l-23.112-10.619l-23.11,10.619c0.031,0.279,0.051,0.561,0.051,0.848
		c0,4.111-3.316,7.457-7.394,7.457c-4.078,0-7.396-3.346-7.396-7.457c0-3.621,2.574-6.645,5.973-7.314l2.91-25.274l-14.837-16.2
		c-0.684,0.21-1.407,0.325-2.158,0.325c-4.077,0-7.395-3.345-7.395-7.457C189.53,206.469,192.848,203.124,196.925,203.124z"/>
</g>
<circle fill="none" stroke="#0B6FFF" stroke-width="28" stroke-miterlimit="10" cx="250" cy="250" r="217.75"/>
</svg>
